<svg width="214" height="44" viewBox="0 0 214 44" fill="none" xmlns="http://www.w3.org/2000/svg" role="img" aria-label="SmartTrip AI">
  <rect x="1" y="1" width="42" height="42" rx="13" fill="#0F172A"/>
  <path d="M13.5 27.4C18.2 18.9 24.8 14 33 11.7C30.8 19.9 25.9 26.5 17.4 31.2L18.2 25.8L13.5 27.4Z" fill="#38BDF8"/>
  <path d="M18.2 25.8L22.7 21.3" stroke="white" stroke-width="2.6" stroke-linecap="round"/>
  <circle cx="29.6" cy="15.1" r="2" fill="white"/>
  <path d="M9.8 35C15.2 34.1 18.8 32.1 22 28.8" stroke="#F97316" stroke-width="2.4" stroke-linecap="round"/>
  <text x="56" y="29.8" fill="#0F172A" font-family="Inter, ui-sans-serif, system-ui, -apple-system, BlinkMacSystemFont, 'Segoe UI', sans-serif" font-size="20" font-weight="800" letter-spacing="0">SmartTrip AI</text>
  <path d="M56 36.5C62.5 35 68.2 35.4 74.4 37.6C81.1 40 87.4 40 94.3 37.6C101.2 35.2 107.5 35.2 114.4 37.6C121.3 40 127.6 40 134.5 37.6C141.4 35.2 147.7 35.2 154.6 37.6C161.5 40 167.8 40 174.7 37.6" stroke="#38BDF8" stroke-width="1.8" stroke-linecap="round"/>
</svg>
